<svg width="24" height="24" viewBox="0 0 24 24" fill="none" xmlns="http://www.w3.org/2000/svg">
<path d="M0.746094 2.64553C0.746094 1.73617 1.5074 0.998047 2.44587 0.998047H22.0453C22.9842 0.998047 23.7451 1.73617 23.7451 2.64553V22.3499C23.7451 23.2595 22.9842 23.9971 22.0453 23.9971H2.44587C1.50749 23.9971 0.746094 23.2596 0.746094 22.3501V2.64526V2.64553Z" fill="white"/>
<path d="M7.73624 20.245V9.89074H4.29466V20.245H7.7366H7.73624ZM6.01617 8.47729C7.21607 8.47729 7.96309 7.68221 7.96309 6.68858C7.94063 5.67231 7.21607 4.89941 6.03899 4.89941C4.8611 4.89941 4.0918 5.67231 4.0918 6.68849C4.0918 7.68212 4.83855 8.4772 5.99362 8.4772H6.0159L6.01617 8.47729ZM9.64121 20.245H13.0825V14.4633C13.0825 14.1543 13.105 13.8444 13.1959 13.6237C13.4446 13.0051 14.0108 12.3648 14.9618 12.3648C16.2068 12.3648 16.7051 13.3143 16.7051 14.7063V20.245H20.1464V14.3082C20.1464 11.1279 18.4488 9.64799 16.1845 9.64799C14.3282 9.64799 13.5129 10.6856 13.0599 11.3922H13.0828V9.8911H9.64139C9.68631 10.8624 9.64112 20.2453 9.64112 20.2453L9.64121 20.245Z" fill="#0A66C2"/>
</svg>
